# Blender 4.2.3 LTS
# www.blender.org
mtllib wooden_crate.mtl
o Cube
v 1.000000 1.000000 -1.000000
v 1.000000 -1.000000 -1.000000
v 1.000000 1.000000 1.000000
v 1.000000 -1.000000 1.000000
v -1.000000 1.000000 -1.000000
v -1.000000 -1.000000 -1.000000
v -1.000000 1.000000 1.000000
v -1.000000 -1.000000 1.000000
v 1.000000 1.000000 -1.000000
v -1.000000 1.000000 -1.000000
v -1.000000 1.000000 1.000000
v 1.000000 1.000000 1.000000
v 1.000000 -1.000000 1.000000
v 1.000000 1.000000 1.000000
v -1.000000 1.000000 1.000000
v -1.000000 -1.000000 1.000000
v -1.000000 -1.000000 1.000000
v -1.000000 1.000000 1.000000
v -1.000000 1.000000 -1.000000
v -1.000000 -1.000000 -1.000000
v -1.000000 -1.000000 -1.000000
v 1.000000 -1.000000 -1.000000
v 1.000000 -1.000000 1.000000
v -1.000000 -1.000000 1.000000
v 1.000000 -1.000000 -1.000000
v 1.000000 1.000000 -1.000000
v 1.000000 1.000000 1.000000
v 1.000000 -1.000000 1.000000
v -1.000000 -1.000000 -1.000000
v -1.000000 1.000000 -1.000000
v 1.000000 1.000000 -1.000000
v 1.000000 -1.000000 -1.000000
v 0.800000 1.000000 -0.800000
v -0.800000 1.000000 -0.800000
v -0.800000 1.000000 0.800000
v 0.800000 1.000000 0.800000
v 0.800000 -0.800000 1.000000
v 0.800000 0.800000 1.000000
v -0.800000 0.800000 1.000000
v -0.800000 -0.800000 1.000000
v -1.000000 -0.800000 0.800000
v -1.000000 0.800000 0.800000
v -1.000000 0.800000 -0.800000
v -1.000000 -0.800000 -0.800000
v -0.800000 -1.000000 -0.800000
v 0.800000 -1.000000 -0.800000
v 0.800000 -1.000000 0.800000
v -0.800000 -1.000000 0.800000
v 1.000000 -0.800000 -0.800000
v 1.000000 0.800000 -0.800000
v 1.000000 0.800000 0.800000
v 1.000000 -0.800000 0.800000
v -0.800000 -0.800000 -1.000000
v -0.800000 0.800000 -1.000000
v 0.800000 0.800000 -1.000000
v 0.800000 -0.800000 -1.000000
v 0.800000 0.897953 -0.800000
v -0.800000 0.897953 -0.800000
v -0.800000 0.897953 0.800000
v 0.800000 0.897953 0.800000
v 0.800000 -0.800000 0.897953
v 0.800000 0.800000 0.897953
v -0.800000 0.800000 0.897953
v -0.800000 -0.800000 0.897953
v -0.897953 -0.800000 0.800000
v -0.897953 0.800000 0.800000
v -0.897953 0.800000 -0.800000
v -0.897953 -0.800000 -0.800000
v -0.800000 -0.897953 -0.800000
v 0.800000 -0.897953 -0.800000
v 0.800000 -0.897953 0.800000
v -0.800000 -0.897953 0.800000
v 0.897953 -0.800000 -0.800000
v 0.897953 0.800000 -0.800000
v 0.897953 0.800000 0.800000
v 0.897953 -0.800000 0.800000
v -0.800000 -0.800000 -0.897953
v -0.800000 0.800000 -0.897953
v 0.800000 0.800000 -0.897953
v 0.800000 -0.800000 -0.897953
vn -0.0000 1.0000 -0.0000
vn -0.0000 -1.0000 -0.0000
vn -0.0000 -0.0000 -1.0000
vn 1.0000 -0.0000 -0.0000
vn -0.0000 -0.0000 1.0000
vn -1.0000 -0.0000 -0.0000
vt 0.614625 0.011255
vt 0.614625 0.214192
vt 0.600620 0.214192
vt 0.600620 0.011255
vt 0.524471 0.014107
vt 0.524471 0.217045
vt 0.510466 0.217045
vt 0.510466 0.014107
vt 0.361830 0.217045
vt 0.361830 0.014107
vt 0.375834 0.014107
vt 0.375834 0.217045
vt 0.362810 0.430096
vt 0.362810 0.227159
vt 0.376815 0.227159
vt 0.376815 0.430096
vt 0.390698 0.014107
vt 0.390698 0.217045
vt 0.376693 0.217045
vt 0.376693 0.014107
vt 0.391557 0.217045
vt 0.391557 0.014107
vt 0.405562 0.014107
vt 0.405562 0.217045
vt 0.516155 0.993678
vt 0.890040 0.248436
vt 0.890040 0.502107
vt 0.862593 0.476740
vt 0.862593 0.273803
vt 0.106392 0.368866
vt 0.106392 0.750090
vt 0.088128 0.711968
vt 0.088128 0.406989
vt 0.018661 0.756962
vt 0.018661 0.503291
vt 0.046109 0.528658
vt 0.046109 0.731595
vt 0.088128 0.393543
vt 0.088128 0.012319
vt 0.106392 0.050442
vt 0.106392 0.355421
vt 0.078652 0.373296
vt 0.078653 0.754520
vt 0.060389 0.716397
vt 0.060388 0.411418
vt 0.018617 0.264561
vt 0.018617 0.010890
vt 0.046064 0.036257
vt 0.046064 0.239194
vt 0.137641 0.388682
vt 0.137641 0.007458
vt 0.155904 0.045581
vt 0.155904 0.350560
vt 0.044290 0.255896
vt 0.044290 0.509567
vt 0.016842 0.484200
vt 0.016843 0.281263
vt 0.186808 0.368164
vt 0.186808 0.749388
vt 0.168544 0.711265
vt 0.168544 0.406286
vt 0.199012 0.273051
vt 0.199012 0.019379
vt 0.226459 0.044746
vt 0.226459 0.247684
vt 0.959749 0.632802
vt 0.959749 0.251578
vt 0.978013 0.289701
vt 0.978013 0.594680
vt 0.908723 0.332467
vt 0.908723 0.078796
vt 0.936171 0.104163
vt 0.936171 0.307100
vt 0.274442 0.494162
vt 0.274442 0.747833
vt 0.246994 0.722466
vt 0.246994 0.519529
vt 0.114701 0.758378
vt 0.114701 0.990691
vt 0.093231 0.967460
vt 0.093231 0.781609
vt 0.164832 0.996266
vt 0.164832 0.742595
vt 0.192280 0.767962
vt 0.192280 0.970899
vt 0.225528 0.723516
vt 0.225529 0.997990
vt 0.200161 0.970542
vt 0.200161 0.750963
vt 0.152881 0.386700
vt 0.152881 0.767924
vt 0.134617 0.729802
vt 0.134617 0.424823
vt 0.046395 0.743543
vt 0.046395 0.997215
vt 0.018948 0.971847
vt 0.018948 0.768910
vt 0.060376 0.388879
vt 0.060376 0.007656
vt 0.078640 0.045778
vt 0.078640 0.350757
vt 0.060379 0.999265
vt 0.060379 0.745593
vt 0.087826 0.770960
vt 0.087826 0.973897
vt 0.254490 0.278228
vt 0.254490 0.485243
vt 0.225479 0.464541
vt 0.225479 0.298930
vt 0.263422 0.262309
vt 0.263422 0.008637
vt 0.290869 0.034004
vt 0.290869 0.236942
vt 0.168071 0.386729
vt 0.168071 0.005505
vt 0.186335 0.043627
vt 0.186335 0.348606
vt 0.279098 0.759458
vt 0.279098 0.974681
vt 0.251203 0.953159
vt 0.251203 0.780980
vt 0.727905 0.762314
vt 0.727905 0.996106
vt 0.508237 0.996106
vt 0.508237 0.762314
vt 0.499803 0.640779
vt 0.280223 0.640779
vt 0.280223 0.437841
vt 0.499803 0.437841
vt 0.723991 0.750779
vt 0.504411 0.750779
vt 0.504411 0.547841
vt 0.723991 0.547841
vt 0.944430 0.547841
vt 0.944430 0.750779
vt 0.724850 0.750779
vt 0.724850 0.547841
vt 0.956349 0.992763
vt 0.736681 0.992763
vt 0.736681 0.758971
vt 0.956349 0.758971
vt 0.501052 0.980760
vt 0.281473 0.980760
vt 0.281473 0.777823
vt 0.501052 0.777823
vt 0.391678 0.227159
vt 0.391678 0.430096
vt 0.377674 0.430096
vt 0.377674 0.227159
vt 0.420426 0.014107
vt 0.420425 0.217045
vt 0.406421 0.217045
vt 0.406421 0.014107
vt 0.435289 0.014107
vt 0.435289 0.217045
vt 0.421284 0.217045
vt 0.421284 0.014107
vt 0.406542 0.227159
vt 0.406542 0.430096
vt 0.392537 0.430096
vt 0.392537 0.227159
vt 0.407401 0.430096
vt 0.407401 0.227159
vt 0.421406 0.227159
vt 0.421406 0.430096
vt 0.450153 0.014107
vt 0.450153 0.217045
vt 0.436148 0.217045
vt 0.436148 0.014107
vt 0.541301 0.014107
vt 0.541301 0.217045
vt 0.527296 0.217045
vt 0.527296 0.014107
vt 0.436269 0.227159
vt 0.436269 0.430096
vt 0.422265 0.430096
vt 0.422265 0.227159
vt 0.451133 0.227159
vt 0.451133 0.430096
vt 0.437128 0.430096
vt 0.437128 0.227159
vt 0.465876 0.217045
vt 0.465876 0.014107
vt 0.479880 0.014107
vt 0.479880 0.217045
vt 0.515550 0.430871
vt 0.515550 0.227934
vt 0.529554 0.227934
vt 0.529554 0.430871
vt 0.570893 0.214192
vt 0.570893 0.011255
vt 0.584898 0.011255
vt 0.584898 0.214192
vt 0.466856 0.430096
vt 0.466856 0.227159
vt 0.480860 0.227159
vt 0.480860 0.430096
vt 0.480739 0.217045
vt 0.480739 0.014107
vt 0.494744 0.014107
vt 0.494744 0.217045
vt 0.599761 0.011255
vt 0.599761 0.214192
vt 0.585757 0.214192
vt 0.585757 0.011255
vt 0.495603 0.217045
vt 0.495603 0.014107
vt 0.509607 0.014107
vt 0.509607 0.217045
vt 0.481719 0.430096
vt 0.481719 0.227159
vt 0.495724 0.227159
vt 0.495724 0.430096
vt 0.496583 0.430096
vt 0.496583 0.227159
vt 0.510587 0.227159
vt 0.510587 0.430096
s 0
usemtl Material
f 52/1/1 49/2/1 73/3/1 76/4/1
f 42/5/2 43/6/2 67/7/2 66/8/2
f 35/9/3 36/10/3 60/11/3 59/12/3
f 53/13/4 54/14/4 78/15/4 77/16/4
f 48/17/4 45/18/4 69/19/4 72/20/4
f 38/21/2 39/22/2 63/23/2 62/24/2
f 1/25/1 5/25/1 10/25/1 9/25/1
f 5/25/1 7/25/1 11/25/1 10/25/1
f 7/25/1 3/25/1 12/25/1 11/25/1
f 3/25/1 1/25/1 9/25/1 12/25/1
f 4/25/1 3/25/1 14/25/1 13/25/1
f 3/25/1 7/25/1 15/25/1 14/25/1
f 7/25/1 8/25/1 16/25/1 15/25/1
f 8/25/1 4/25/1 13/25/1 16/25/1
f 8/25/1 7/25/1 18/25/1 17/25/1
f 7/25/1 5/25/1 19/25/1 18/25/1
f 5/25/1 6/25/1 20/25/1 19/25/1
f 6/25/1 8/25/1 17/25/1 20/25/1
f 6/25/1 2/25/1 22/25/1 21/25/1
f 2/25/1 4/25/1 23/25/1 22/25/1
f 4/25/1 8/25/1 24/25/1 23/25/1
f 8/25/1 6/25/1 21/25/1 24/25/1
f 2/25/1 1/25/1 26/25/1 25/25/1
f 1/25/1 3/25/1 27/25/1 26/25/1
f 3/25/1 4/25/1 28/25/1 27/25/1
f 4/25/1 2/25/1 25/25/1 28/25/1
f 6/25/1 5/25/1 30/25/1 29/25/1
f 5/25/1 1/25/1 31/25/1 30/25/1
f 1/25/1 2/25/1 32/25/1 31/25/1
f 2/25/1 6/25/1 29/25/1 32/25/1
f 9/26/1 10/27/1 34/28/1 33/29/1
f 10/30/1 11/31/1 35/32/1 34/33/1
f 11/34/1 12/35/1 36/36/1 35/37/1
f 12/38/1 9/39/1 33/40/1 36/41/1
f 13/42/5 14/43/5 38/44/5 37/45/5
f 14/46/5 15/47/5 39/48/5 38/49/5
f 15/50/5 16/51/5 40/52/5 39/53/5
f 16/54/5 13/55/5 37/56/5 40/57/5
f 17/58/6 18/59/6 42/60/6 41/61/6
f 18/62/6 19/63/6 43/64/6 42/65/6
f 19/66/6 20/67/6 44/68/6 43/69/6
f 20/70/6 17/71/6 41/72/6 44/73/6
f 21/74/2 22/75/2 46/76/2 45/77/2
f 22/78/2 23/79/2 47/80/2 46/81/2
f 23/82/2 24/83/2 48/84/2 47/85/2
f 24/86/2 21/87/2 45/88/2 48/89/2
f 25/90/4 26/91/4 50/92/4 49/93/4
f 26/94/4 27/95/4 51/96/4 50/97/4
f 27/98/4 28/99/4 52/100/4 51/101/4
f 28/102/4 25/103/4 49/104/4 52/105/4
f 29/106/3 30/107/3 54/108/3 53/109/3
f 30/110/3 31/111/3 55/112/3 54/113/3
f 31/114/3 32/115/3 56/116/3 55/117/3
f 32/118/3 29/119/3 53/120/3 56/121/3
f 57/122/1 58/123/1 59/124/1 60/125/1
f 61/126/5 62/127/5 63/128/5 64/129/5
f 65/130/6 66/131/6 67/132/6 68/133/6
f 69/134/2 70/135/2 71/136/2 72/137/2
f 73/138/4 74/139/4 75/140/4 76/141/4
f 77/142/3 78/143/3 79/144/3 80/145/3
f 39/146/4 40/147/4 64/148/4 63/149/4
f 46/150/6 47/151/6 71/152/6 70/153/6
f 56/154/1 53/155/1 77/156/1 80/157/1
f 43/158/5 44/159/5 68/160/5 67/161/5
f 50/162/2 51/163/2 75/164/2 74/165/2
f 47/166/3 48/167/3 72/168/3 71/169/3
f 54/170/2 55/171/2 79/172/2 78/173/2
f 51/174/3 52/175/3 76/176/3 75/177/3
f 55/178/6 56/179/6 80/180/6 79/181/6
f 33/182/5 34/183/5 58/184/5 57/185/5
f 37/186/6 38/187/6 62/188/6 61/189/6
f 36/190/6 33/191/6 57/192/6 60/193/6
f 41/194/3 42/195/3 66/196/3 65/197/3
f 40/198/1 37/199/1 61/200/1 64/201/1
f 45/202/5 46/203/5 70/204/5 69/205/5
f 34/206/4 35/207/4 59/208/4 58/209/4
f 44/210/1 41/211/1 65/212/1 68/213/1
f 49/214/5 50/215/5 74/216/5 73/217/5
o Plane
v -0.800002 -0.509004 -0.899273
v -0.508272 -0.799846 -0.899273
v 0.510040 0.801326 -0.899273
v 0.801326 0.510040 -0.899273
v -0.800298 -0.800150 -0.899273
v 0.801405 0.802067 -0.899273
v -0.800002 -0.509004 -0.971548
v -0.508272 -0.799846 -0.971548
v 0.510040 0.801326 -0.971548
v 0.801326 0.510040 -0.971548
v -0.800298 -0.800150 -0.971548
v 0.801405 0.802067 -0.971548
v -0.800002 -0.509004 0.899273
v -0.508272 -0.799846 0.899273
v 0.510040 0.801326 0.899273
v 0.801326 0.510040 0.899273
v -0.800298 -0.800150 0.899273
v 0.801405 0.802067 0.899273
v -0.800002 -0.509004 0.971548
v -0.508272 -0.799846 0.971548
v 0.510040 0.801326 0.971548
v 0.801326 0.510040 0.971548
v -0.800298 -0.800150 0.971548
v 0.801405 0.802067 0.971548
v -0.807173 -0.506030 -0.892970
v -0.505297 -0.807017 -0.892970
v 0.507060 0.808494 -0.892968
v 0.808499 0.507069 -0.892970
v -0.806072 -0.805924 -0.893500
v 0.807172 0.807848 -0.893501
v -0.807173 -0.506030 -0.977851
v -0.505297 -0.807017 -0.977851
v 0.507060 0.808494 -0.977852
v 0.808499 0.507069 -0.977851
v -0.806072 -0.805924 -0.977321
v 0.807172 0.807848 -0.977320
v -0.807173 -0.506030 0.892970
v -0.505297 -0.807017 0.892970
v 0.507060 0.808494 0.892968
v 0.808499 0.507069 0.892970
v -0.806072 -0.805924 0.893500
v 0.807172 0.807848 0.893501
v -0.807173 -0.506030 0.977852
v -0.505297 -0.807017 0.977851
v 0.507060 0.808494 0.977853
v 0.808499 0.507069 0.977851
v -0.806072 -0.805924 0.977321
v 0.807172 0.807848 0.977320
vn -0.0000 -0.0000 -1.0000
vn -0.0000 -0.0000 1.0000
vn -0.7072 0.7070 -0.0000
vn 0.7072 -0.7070 -0.0000
vn -1.0000 0.0003 -0.0000
vn 0.0025 -1.0000 -0.0000
vn -0.0010 1.0000 -0.0000
vn 1.0000 -0.0010 -0.0000
vn -0.0018 0.0018 1.0000
vn 0.0018 -0.0018 1.0000
vn -0.0018 0.0018 -1.0000
vn 0.0018 -0.0018 -1.0000
vn 1.0000 0.0044 -0.0000
vn 0.0022 1.0000 -0.0000
vn -0.0036 -1.0000 -0.0000
vn -1.0000 -0.0037 -0.0000
vt 0.760731 0.299897
vt 0.760755 0.965030
vt 0.717327 0.904383
vt 0.717327 0.360578
vt 0.803996 0.360407
vt 0.803996 0.904396
vt 0.654269 0.295991
vt 0.697673 0.356672
vt 0.697673 0.900476
vt 0.654245 0.961124
vt 0.611004 0.356501
vt 0.611004 0.900490
vt 0.835071 0.731658
vt 0.835071 0.346772
vt 0.850277 0.346772
vt 0.850277 0.731658
vt 0.819743 0.732365
vt 0.819743 0.346772
vt 0.834949 0.346772
vt 0.834949 0.732365
vt 0.835071 0.903301
vt 0.835071 0.817564
vt 0.850277 0.817564
vt 0.850277 0.903301
vt 0.819743 0.817907
vt 0.834949 0.817907
vt 0.835071 0.817394
vt 0.850277 0.817394
vt 0.835071 0.988949
vt 0.835071 0.903471
vt 0.850277 0.903471
vt 0.850277 0.988949
s 0
usemtl Material.001
f 85/218/7 86/219/7 84/220/7 82/221/7
f 81/222/7 83/223/7 86/219/7 85/218/7
f 91/224/8 88/225/8 90/226/8 92/227/8
f 87/228/8 91/224/8 92/227/8 89/229/8
f 82/230/9 84/231/9 90/232/9 88/233/9
f 83/234/10 81/235/10 87/236/10 89/237/10
f 84/238/11 86/239/11 92/240/11 90/241/11
f 86/242/12 83/234/12 89/237/12 92/243/12
f 85/244/13 82/230/13 88/233/13 91/245/13
f 81/246/14 85/247/14 91/248/14 87/249/14
f 97/218/8 94/221/8 96/220/8 98/219/8
f 93/222/8 97/218/8 98/219/8 95/223/8
f 103/224/7 104/227/7 102/226/7 100/225/7
f 99/228/7 101/229/7 104/227/7 103/224/7
f 94/230/9 100/233/9 102/232/9 96/231/9
f 95/234/10 101/237/10 99/236/10 93/235/10
f 96/238/11 102/241/11 104/240/11 98/239/11
f 98/242/12 104/243/12 101/237/12 95/234/12
f 97/244/13 103/245/13 100/233/13 94/230/13
f 93/246/14 99/249/14 103/248/14 97/247/14
f 109/218/15 106/221/15 108/220/15 110/219/15
f 105/222/16 109/218/16 110/219/16 107/223/16
f 115/224/17 116/227/17 114/226/17 112/225/17
f 111/228/18 113/229/18 116/227/18 115/224/18
f 106/230/10 112/233/10 114/232/10 108/231/10
f 107/234/9 113/237/9 111/236/9 105/235/9
f 108/238/19 114/241/19 116/240/19 110/239/19
f 110/242/20 116/243/20 113/237/20 107/234/20
f 109/244/21 115/245/21 112/233/21 106/230/21
f 105/246/22 111/249/22 115/248/22 109/247/22
f 121/218/17 122/219/17 120/220/17 118/221/17
f 117/222/18 119/223/18 122/219/18 121/218/18
f 127/224/15 124/225/15 126/226/15 128/227/15
f 123/228/16 127/224/16 128/227/16 125/229/16
f 118/230/10 120/231/10 126/232/10 124/233/10
f 119/234/9 117/235/9 123/236/9 125/237/9
f 120/238/19 122/239/19 128/240/19 126/241/19
f 122/242/20 119/234/20 125/237/20 128/243/20
f 121/244/21 118/230/21 124/233/21 127/245/21
f 117/246/22 121/247/22 127/248/22 123/249/22
