# Blender 4.3.2
# www.blender.org
mtllib DroneGlow1.0.mtl
o Cylinder.002
v 7.296530 0.428662 -7.177687
v 7.812017 0.428662 -6.754638
v -0.584990 -1.563242 -0.031978
v 7.649416 -1.563242 -0.031978
v -0.584990 -1.514790 -0.036603
v 7.649416 -1.514790 -0.036603
v -0.584990 -1.468174 -0.050590
v 7.649416 -1.468174 -0.050590
v -0.584990 -1.425185 -0.073404
v 7.649416 -1.425185 -0.073404
v -0.584990 -1.387466 -0.104164
v 7.649416 -1.387466 -0.104164
v -0.584990 -1.356478 -0.141693
v 7.649416 -1.356478 -0.141693
v -0.584990 -1.333407 -0.184548
v 7.649416 -1.333407 -0.184548
v -0.584990 -1.319140 -0.231078
v 7.649416 -1.319140 -0.231078
v -0.584990 -1.314225 -0.279498
v 7.649416 -1.314225 -0.279498
v -0.584990 -1.318849 -0.327947
v 7.649416 -1.318849 -0.327947
v -0.584990 -1.332835 -0.374563
v 7.649416 -1.332835 -0.374563
v -0.584990 -1.355649 -0.417554
v 7.649416 -1.355649 -0.417554
v -0.584990 -1.386410 -0.455270
v 7.649416 -1.386410 -0.455270
v -0.584990 -1.423941 -0.486258
v 7.649416 -1.423941 -0.486258
v -0.584990 -1.466793 -0.509329
v 7.649416 -1.466793 -0.509329
v -0.584990 -1.513323 -0.523598
v 7.649416 -1.513323 -0.523598
v -0.584990 -1.561745 -0.528513
v 7.649416 -1.561745 -0.528513
v -0.584990 -1.610193 -0.523889
v 7.649416 -1.610193 -0.523889
v -0.584990 -1.656809 -0.509902
v 7.649416 -1.656809 -0.509902
v -0.584990 -1.699803 -0.487089
v 7.649416 -1.699803 -0.487089
v -0.584990 -1.737513 -0.456327
v 7.649416 -1.737513 -0.456327
v -0.584990 -1.768505 -0.418798
v 7.649416 -1.768505 -0.418798
v -0.584990 -1.791577 -0.375945
v 7.649416 -1.791577 -0.375945
v -0.584990 -1.805843 -0.329414
v 7.649416 -1.805843 -0.329414
v -0.584990 -1.810762 -0.280994
v 7.649416 -1.810762 -0.280994
v -0.584990 -1.806134 -0.232545
v 7.649416 -1.806134 -0.232545
v -0.584990 -1.792148 -0.185930
v 7.649416 -1.792148 -0.185930
v -0.584990 -1.769336 -0.142936
v 7.649416 -1.769336 -0.142936
v -0.584990 -1.738571 -0.105224
v 7.649416 -1.738571 -0.105224
v -0.584990 -1.701046 -0.074234
v 7.649416 -1.701046 -0.074234
v -0.584990 -1.658190 -0.051162
v 7.649416 -1.658190 -0.051162
v -0.584990 -1.611660 -0.036894
v 7.649416 -1.611660 -0.036894
v -0.588187 -1.563029 -0.102263
v 7.841159 -1.563029 -0.102263
v -0.588187 -1.528294 -0.105578
v 7.841159 -1.528294 -0.105578
v -0.588187 -1.494877 -0.115605
v 7.841159 -1.494877 -0.115605
v -0.588187 -1.464056 -0.131961
v 7.841159 -1.464056 -0.131961
v -0.588187 -1.437016 -0.154013
v 7.841159 -1.437016 -0.154013
v -0.588187 -1.414801 -0.180918
v 7.841159 -1.414801 -0.180918
v -0.588187 -1.398261 -0.211641
v 7.841159 -1.398261 -0.211641
v -0.588187 -1.388034 -0.244997
v 7.841159 -1.388034 -0.244997
v -0.588187 -1.384509 -0.279710
v 7.841159 -1.384509 -0.279710
v -0.588187 -1.387824 -0.314442
v 7.841159 -1.387824 -0.314442
v -0.588187 -1.397851 -0.347862
v 7.841159 -1.397851 -0.347862
v -0.588187 -1.414205 -0.378682
v 7.841159 -1.414205 -0.378682
v -0.588187 -1.436258 -0.405721
v 7.841159 -1.436258 -0.405721
v -0.588187 -1.463165 -0.427937
v 7.841159 -1.463165 -0.427937
v -0.588187 -1.493886 -0.444476
v 7.841159 -1.493886 -0.444476
v -0.588187 -1.527242 -0.454706
v 7.841159 -1.527242 -0.454706
v -0.588187 -1.561956 -0.458228
v 7.841159 -1.561956 -0.458228
v -0.588187 -1.596689 -0.454914
v 7.841159 -1.596689 -0.454914
v -0.588187 -1.630108 -0.444887
v 7.841159 -1.630108 -0.444887
v -0.588187 -1.660931 -0.428532
v 7.841159 -1.660931 -0.428532
v -0.588187 -1.687964 -0.406478
v 7.841159 -1.687964 -0.406478
v -0.588187 -1.710182 -0.379574
v 7.841159 -1.710182 -0.379574
v -0.588187 -1.726722 -0.348852
v 7.841159 -1.726722 -0.348852
v -0.588187 -1.736951 -0.315494
v 7.841159 -1.736951 -0.315494
v -0.588187 -1.740476 -0.280782
v 7.841159 -1.740476 -0.280782
v -0.588187 -1.737158 -0.246049
v 7.841159 -1.737158 -0.246049
v -0.588187 -1.727132 -0.212630
v 7.841159 -1.727132 -0.212630
v -0.588187 -1.710778 -0.181809
v 7.841159 -1.710778 -0.181809
v -0.588187 -1.688723 -0.154773
v 7.841159 -1.688723 -0.154773
v -0.588187 -1.661821 -0.132557
v 7.841159 -1.661821 -0.132557
v -0.588187 -1.631099 -0.116016
v 7.841159 -1.631099 -0.116016
v -0.588187 -1.597740 -0.105786
v 7.841159 -1.597740 -0.105786
vn -0.0000 0.0950 0.9955
vn -0.0000 0.2874 0.9578
vn -0.0000 0.4688 0.8833
vn -0.0000 0.6320 0.7750
vn -0.0000 0.7711 0.6367
vn -0.0000 0.8805 0.4740
vn -0.0000 0.9561 0.2931
vn -0.0000 0.9949 0.1010
vn -0.0000 0.9955 -0.0950
vn -0.0000 0.9578 -0.2874
vn -0.0000 0.8833 -0.4687
vn -0.0000 0.7749 -0.6320
vn -0.0000 0.6367 -0.7711
vn -0.0000 0.4740 -0.8805
vn -0.0000 0.2932 -0.9561
vn -0.0000 0.1010 -0.9949
vn -0.0000 -0.0950 -0.9955
vn -0.0000 -0.2874 -0.9578
vn -0.0000 -0.4687 -0.8834
vn -0.0000 -0.6321 -0.7749
vn -0.0000 -0.7711 -0.6367
vn -0.0000 -0.8805 -0.4741
vn -0.0000 -0.9561 -0.2931
vn -0.0000 -0.9949 -0.1011
vn -0.0000 -0.9955 0.0951
vn -0.0000 -0.9578 0.2874
vn -0.0000 -0.8834 0.4687
vn -0.0000 -0.7749 0.6321
vn -0.0000 -0.6368 0.7711
vn -0.0000 -0.4740 0.8805
vn -0.0000 -0.2932 0.9561
vn -0.0000 -0.1010 0.9949
vn -0.0000 -0.4688 -0.8833
vn -0.0000 -0.6320 -0.7750
vn -0.0000 -0.8805 -0.4740
vn -0.0000 -0.9561 -0.2932
vn -0.0000 -0.9949 -0.1010
vn -0.0000 -0.9955 0.0950
vn -0.0000 -0.8833 0.4687
vn -0.0000 -0.7749 0.6320
vn -0.0000 -0.6367 0.7711
vn -0.0000 -0.2932 0.9560
vn -0.0000 -0.1009 0.9949
vn -0.0000 0.4687 0.8833
vn -0.0000 0.6321 0.7749
vn -0.0000 0.7711 0.6368
vn -0.0000 0.9949 0.1011
vn -0.0000 0.9955 -0.0951
vn -0.0000 0.7749 -0.6321
vn -0.0000 0.6368 -0.7711
vn -0.0000 0.4741 -0.8805
vn -0.9990 0.0454 0.0001
vn -0.9990 0.0445 0.0090
vn -0.9990 0.0419 0.0175
vn -0.9990 0.0377 0.0254
vn -0.9990 0.0320 0.0322
vn -0.9990 0.0251 0.0379
vn -0.9990 0.0173 0.0420
vn -0.9990 0.0087 0.0446
vn -0.9990 -0.0001 0.0454
vn -0.9990 -0.0090 0.0445
vn -0.9990 -0.0175 0.0419
vn -0.9990 -0.0254 0.0377
vn -0.9990 -0.0322 0.0320
vn -0.9990 -0.0379 0.0251
vn -0.9990 -0.0420 0.0173
vn -0.9990 -0.0446 0.0087
vn -0.9990 -0.0454 -0.0001
vn -0.9990 -0.0445 -0.0090
vn -0.9990 -0.0419 -0.0175
vn -0.9990 -0.0377 -0.0254
vn -0.9990 -0.0320 -0.0322
vn -0.9990 -0.0251 -0.0379
vn -0.9990 -0.0173 -0.0420
vn -0.9990 -0.0087 -0.0446
vn -0.9990 0.0001 -0.0454
vn -0.9990 0.0090 -0.0445
vn -0.9990 0.0175 -0.0419
vn -0.9990 0.0254 -0.0377
vn -0.9990 0.0322 -0.0320
vn -0.9990 0.0379 -0.0251
vn -0.9990 0.0420 -0.0173
vn -0.9990 0.0446 -0.0087
vn 0.3442 0.9389 0.0028
vn 0.3442 0.9214 -0.1804
vn 0.3442 0.9203 0.1859
vn 0.3442 0.8664 0.3619
vn 0.3442 0.7791 0.5240
vn 0.3442 0.6619 0.6659
vn 0.3442 0.5193 0.7823
vn 0.3442 0.3567 0.8685
vn 0.3442 0.1804 0.9214
vn 0.3442 -0.0028 0.9389
vn 0.3442 -0.1859 0.9203
vn 0.3442 -0.3619 0.8664
vn 0.3442 -0.5240 0.7791
vn 0.3442 -0.6659 0.6619
vn 0.3442 -0.7822 0.5193
vn 0.3442 -0.8685 0.3567
vn 0.3442 -0.9214 0.1804
vn 0.3442 -0.9389 -0.0028
vn 0.3442 -0.9203 -0.1860
vn 0.3442 -0.8664 -0.3619
vn 0.3442 -0.7791 -0.5240
vn 0.3442 -0.6619 -0.6659
vn 0.3442 -0.5193 -0.7822
vn 0.3442 -0.3567 -0.8685
vn 0.3442 -0.1804 -0.9214
vn 0.3442 0.0028 -0.9389
vn 0.3442 0.1859 -0.9203
vn 0.3442 0.8685 -0.3567
vn 0.3442 0.7823 -0.5193
vn 0.3442 0.7822 -0.5193
vn 0.3442 0.6659 -0.6619
vn 0.3442 0.5240 -0.7791
vn 0.3442 0.3619 -0.8663
vt 1.000000 0.500000
vt 1.000000 1.000000
vt 0.968750 1.000000
vt 0.968750 0.500000
vt 0.937500 1.000000
vt 0.937500 0.500000
vt 0.906250 1.000000
vt 0.906250 0.500000
vt 0.875000 1.000000
vt 0.875000 0.500000
vt 0.843750 1.000000
vt 0.843750 0.500000
vt 0.812500 1.000000
vt 0.812500 0.500000
vt 0.781250 1.000000
vt 0.781250 0.500000
vt 0.750000 1.000000
vt 0.750000 0.500000
vt 0.718750 1.000000
vt 0.718750 0.500000
vt 0.687500 1.000000
vt 0.687500 0.500000
vt 0.656250 1.000000
vt 0.656250 0.500000
vt 0.625000 1.000000
vt 0.625000 0.500000
vt 0.593750 1.000000
vt 0.593750 0.500000
vt 0.562500 1.000000
vt 0.562500 0.500000
vt 0.531250 1.000000
vt 0.531250 0.500000
vt 0.500000 1.000000
vt 0.500000 0.500000
vt 0.468750 1.000000
vt 0.468750 0.500000
vt 0.437500 1.000000
vt 0.437500 0.500000
vt 0.406250 1.000000
vt 0.406250 0.500000
vt 0.375000 1.000000
vt 0.375000 0.500000
vt 0.343750 1.000000
vt 0.343750 0.500000
vt 0.312500 1.000000
vt 0.312500 0.500000
vt 0.281250 1.000000
vt 0.281250 0.500000
vt 0.250000 1.000000
vt 0.250000 0.500000
vt 0.218750 1.000000
vt 0.218750 0.500000
vt 0.187500 1.000000
vt 0.187500 0.500000
vt 0.156250 1.000000
vt 0.156250 0.500000
vt 0.125000 1.000000
vt 0.125000 0.500000
vt 0.093750 1.000000
vt 0.093750 0.500000
vt 0.062500 1.000000
vt 0.062500 0.500000
vt 0.031250 1.000000
vt 0.031250 0.500000
vt 0.000000 1.000000
vt 0.000000 0.500000
s 1
f 3/1/1 4/2/1 6/3/1 5/4/1
f 5/4/2 6/3/2 8/5/2 7/6/2
f 7/6/3 8/5/3 10/7/3 9/8/3
f 9/8/4 10/7/4 12/9/4 11/10/4
f 11/10/5 12/9/5 14/11/5 13/12/5
f 13/12/6 14/11/6 16/13/6 15/14/6
f 15/14/7 16/13/7 18/15/7 17/16/7
f 17/16/8 18/15/8 20/17/8 19/18/8
f 19/18/9 20/17/9 22/19/9 21/20/9
f 21/20/10 22/19/10 24/21/10 23/22/10
f 23/22/11 24/21/11 26/23/11 25/24/11
f 25/24/12 26/23/12 28/25/12 27/26/12
f 27/26/13 28/25/13 30/27/13 29/28/13
f 29/28/14 30/27/14 32/29/14 31/30/14
f 31/30/15 32/29/15 34/31/15 33/32/15
f 33/32/16 34/31/16 36/33/16 35/34/16
f 35/34/17 36/33/17 38/35/17 37/36/17
f 37/36/18 38/35/18 40/37/18 39/38/18
f 39/38/19 40/37/19 42/39/19 41/40/19
f 41/40/20 42/39/20 44/41/20 43/42/20
f 43/42/21 44/41/21 46/43/21 45/44/21
f 45/44/22 46/43/22 48/45/22 47/46/22
f 47/46/23 48/45/23 50/47/23 49/48/23
f 49/48/24 50/47/24 52/49/24 51/50/24
f 51/50/25 52/49/25 54/51/25 53/52/25
f 53/52/26 54/51/26 56/53/26 55/54/26
f 55/54/27 56/53/27 58/55/27 57/56/27
f 57/56/28 58/55/28 60/57/28 59/58/28
f 59/58/29 60/57/29 62/59/29 61/60/29
f 61/60/30 62/59/30 64/61/30 63/62/30
f 69/4/18 71/6/18 72/5/18 70/3/18
f 63/62/31 64/61/31 66/63/31 65/64/31
f 65/64/32 66/63/32 4/65/32 3/66/32
f 67/1/17 69/4/17 70/3/17 68/2/17
f 71/6/33 73/8/33 74/7/33 72/5/33
f 73/8/34 75/10/34 76/9/34 74/7/34
f 75/10/21 77/12/21 78/11/21 76/9/21
f 77/12/35 79/14/35 80/13/35 78/11/35
f 79/14/36 81/16/36 82/15/36 80/13/36
f 81/16/37 83/18/37 84/17/37 82/15/37
f 83/18/38 85/20/38 86/19/38 84/17/38
f 85/20/26 87/22/26 88/21/26 86/19/26
f 87/22/39 89/24/39 90/23/39 88/21/39
f 89/24/40 91/26/40 92/25/40 90/23/40
f 91/26/41 93/28/41 94/27/41 92/25/41
f 93/28/30 95/30/30 96/29/30 94/27/30
f 95/30/42 97/32/42 98/31/42 96/29/42
f 97/32/43 99/34/43 100/33/43 98/31/43
f 99/34/1 101/36/1 102/35/1 100/33/1
f 101/36/2 103/38/2 104/37/2 102/35/2
f 103/38/44 105/40/44 106/39/44 104/37/44
f 105/40/45 107/42/45 108/41/45 106/39/45
f 107/42/46 109/44/46 110/43/46 108/41/46
f 109/44/6 111/46/6 112/45/6 110/43/6
f 111/46/7 113/48/7 114/47/7 112/45/7
f 113/48/47 115/50/47 116/49/47 114/47/47
f 115/50/48 117/52/48 118/51/48 116/49/48
f 117/52/10 119/54/10 120/53/10 118/51/10
f 119/54/11 121/56/11 122/55/11 120/53/11
f 121/56/49 123/58/49 124/57/49 122/55/49
f 123/58/50 125/60/50 126/59/50 124/57/50
f 125/60/51 127/62/51 128/61/51 126/59/51
f 127/62/15 129/64/15 130/63/15 128/61/15
f 129/64/16 67/66/16 68/65/16 130/63/16
f 19/18/52 83/18/52 81/16/53 17/16/53
f 17/16/53 81/16/53 79/14/54 15/14/54
f 15/14/54 79/14/54 77/12/55 13/12/55
f 13/12/55 77/12/55 75/10/56 11/10/56
f 11/10/56 75/10/56 73/8/57 9/8/57
f 9/8/57 73/8/57 71/6/58 7/6/58
f 7/6/58 71/6/58 69/4/59 5/4/59
f 5/4/59 69/4/59 67/1/60 3/1/60
f 3/1/60 67/1/60 129/64/61 65/64/61
f 65/64/61 129/64/61 127/62/62 63/62/62
f 63/62/62 127/62/62 125/60/63 61/60/63
f 61/60/63 125/60/63 123/58/64 59/58/64
f 59/58/64 123/58/64 121/56/65 57/56/65
f 57/56/65 121/56/65 119/54/66 55/54/66
f 55/54/66 119/54/66 117/52/67 53/52/67
f 53/52/67 117/52/67 115/50/68 51/50/68
f 51/50/68 115/50/68 113/48/69 49/48/69
f 49/48/69 113/48/69 111/46/70 47/46/70
f 47/46/70 111/46/70 109/44/71 45/44/71
f 45/44/71 109/44/71 107/42/72 43/42/72
f 43/42/72 107/42/72 105/40/73 41/40/73
f 41/40/73 105/40/73 103/38/74 39/38/74
f 39/38/74 103/38/74 101/36/75 37/36/75
f 37/36/75 101/36/75 99/34/76 35/34/76
f 35/34/76 99/34/76 97/32/77 33/32/77
f 33/32/77 97/32/77 95/30/78 31/30/78
f 31/30/78 95/30/78 93/28/79 29/28/79
f 29/28/79 93/28/79 91/26/80 27/26/80
f 27/26/80 91/26/80 89/24/81 25/24/81
f 25/24/81 89/24/81 87/22/82 23/22/82
f 23/22/82 87/22/82 85/20/83 21/20/83
f 21/20/83 85/20/83 83/18/52 19/18/52
f 20/17/84 84/17/84 86/19/85 22/19/85
f 18/15/86 82/15/86 84/17/84 20/17/84
f 16/13/87 80/13/87 82/15/86 18/15/86
f 14/11/88 78/11/88 80/13/87 16/13/87
f 12/9/89 76/9/89 78/11/88 14/11/88
f 10/7/90 74/7/90 76/9/89 12/9/89
f 8/5/91 72/5/91 74/7/90 10/7/90
f 6/3/92 70/3/92 72/5/91 8/5/91
f 4/2/93 68/2/93 70/3/92 6/3/92
f 66/63/94 130/63/94 68/65/93 4/2/93
f 64/61/95 128/61/95 130/63/94 66/63/94
f 62/59/96 126/59/96 128/61/95 64/61/95
f 60/57/97 124/57/97 126/59/96 62/59/96
f 58/55/98 122/55/98 124/57/97 60/57/97
f 56/53/99 120/53/99 122/55/98 58/55/98
f 54/51/100 118/51/100 120/53/99 56/53/99
f 52/49/101 116/49/101 118/51/100 54/51/100
f 50/47/102 114/47/102 116/49/101 52/49/101
f 48/45/103 112/45/103 114/47/102 50/47/102
f 46/43/104 110/43/104 112/45/103 48/45/103
f 44/41/105 108/41/105 110/43/104 46/43/104
f 42/39/106 106/39/106 108/41/105 44/41/105
f 40/37/107 104/37/107 106/39/106 42/39/106
f 38/35/108 102/35/108 104/37/107 40/37/107
f 36/33/109 100/33/109 102/35/108 38/35/108
f 34/31/110 98/31/110 100/33/109 36/33/109
f 22/19/85 86/19/85 88/21/111 24/21/111
f 24/21/111 88/21/111 90/23/112 26/23/113
f 26/23/113 90/23/112 92/25/114 28/25/114
f 28/25/114 92/25/114 94/27/115 30/27/115
f 30/27/115 94/27/115 96/29/116 32/29/116
f 32/29/116 96/29/116 98/31/110 34/31/110
l 1 2
o Cube
v -1.158814 1.623904 0.337202
v -1.158814 2.372708 0.668184
v -1.158814 1.623903 -0.899118
v -1.158814 2.372708 -1.230100
v -0.927192 1.623904 0.668184
v -0.927192 2.372708 0.668184
v -0.927192 1.623903 -1.230100
v -0.927192 2.372708 -1.230100
vn -1.0000 -0.0000 -0.0000
vn -0.5722 -0.1770 -0.8008
vn 1.0000 -0.0000 -0.0000
vn -0.5722 -0.1770 0.8008
vn -0.0000 -1.0000 -0.0000
vn -0.0000 1.0000 -0.0000
vt 0.375000 0.000000
vt 0.625000 0.000000
vt 0.625000 0.250000
vt 0.375000 0.250000
vt 0.625000 0.500000
vt 0.375000 0.500000
vt 0.625000 0.750000
vt 0.375000 0.750000
vt 0.625000 1.000000
vt 0.375000 1.000000
vt 0.125000 0.500000
vt 0.125000 0.750000
vt 0.875000 0.500000
vt 0.875000 0.750000
s 1
f 131/67/117 132/68/117 134/69/117 133/70/117
f 133/70/118 134/69/118 138/71/118 137/72/118
f 137/72/119 138/71/119 136/73/119 135/74/119
f 135/74/120 136/73/120 132/75/120 131/76/120
f 133/77/121 137/72/121 135/74/121 131/78/121
f 138/71/122 134/79/122 132/80/122 136/73/122
