# Blender 4.3.2
# www.blender.org
mtllib MaskFrame1.0.mtl
o Cube
v -1.375288 -0.796677 1.009191
v -1.481595 1.700508 1.139486
v -1.358838 -0.759277 -1.157820
v -1.442375 1.700508 -1.285231
v -1.320359 -0.671796 0.930587
v -1.338761 1.626938 1.057191
v -1.303511 -0.633492 -1.080956
v -1.298506 1.626938 -1.204757
v -1.015777 2.905087 0.871102
v -0.973185 2.905087 -1.022788
v -0.830423 2.832083 -0.942934
v -0.874042 2.832083 0.789440
v -0.972800 1.626938 1.692366
v -1.115634 1.700508 1.774661
v -0.631357 2.832083 1.420032
v -0.649817 2.905087 1.506277
v -1.228410 -0.462751 1.642352
v -1.116795 1.700508 1.772647
v -0.973960 1.626938 1.690352
v -1.173482 -0.337870 1.563749
v -1.096454 1.700508 -1.903661
v -0.952586 1.626938 -1.823188
v -0.630072 2.905087 -1.636197
v -0.487311 2.832083 -1.556343
v -0.876177 -0.971576 -1.157820
v -1.219685 -0.442914 -1.775703
v -1.164358 -0.317129 -1.698839
v -0.820850 -0.845791 -1.080956
v -0.681697 -0.529428 -1.698839
v -0.737024 -0.655212 -1.775703
v -0.874466 -0.972329 -1.157820
v -0.890916 -1.009728 1.009191
v -0.819139 -0.846544 -1.080956
v -0.835987 -0.884848 0.930587
v -0.744911 -0.675418 1.642352
v -0.789420 -0.550538 1.585747
v -0.408643 1.154005 2.835477
v -0.566707 -0.499350 3.001193
v -0.487311 1.154005 -2.850086
v -0.681697 -0.489032 -2.992583
vn -0.9992 -0.0383 -0.0124
vn 0.9154 -0.4026 -0.0000
vn 0.9999 0.0029 0.0134
vn -0.9251 -0.0201 0.3791
vn 0.4025 0.9152 0.0208
vn 0.3557 0.9132 0.1990
vn 0.4566 0.8896 0.0109
vn 0.9324 -0.3608 0.0196
vn -0.9321 0.3617 -0.0177
vn 0.8372 -0.3702 -0.4026
vn 0.6899 -0.0694 0.7206
vn -0.7912 0.4076 0.4559
vn 0.5029 0.8298 -0.2418
vn -0.3531 -0.9132 0.2035
vn 0.6430 -0.0958 0.7598
vn 0.3984 0.7884 -0.4688
vn 0.3531 0.9132 -0.2035
vn 0.9286 -0.0174 -0.3706
vn 0.4897 0.0040 -0.8719
vn -0.7970 0.4076 -0.4458
vn 0.7974 -0.4066 0.4460
vn 0.6327 -0.0993 -0.7680
vn -0.9298 -0.0124 -0.3680
vn 0.9329 -0.0269 0.3591
vn 0.3514 0.7989 0.4882
vn 0.1966 0.4469 -0.8727
vn -0.3514 -0.7989 -0.4882
vn -0.1966 -0.4469 0.8727
vn 0.2010 0.4570 0.8665
vn -0.4026 -0.9152 -0.0189
vn 0.9906 -0.0948 -0.0988
vn -0.3489 -0.7931 0.4992
vn 0.2034 0.4595 0.8646
vn 0.3443 -0.0166 0.9387
vn 0.2892 -0.0189 -0.9571
vn -0.0000 1.0000 -0.0000
vn -0.9777 0.0743 0.1965
vn -0.9955 0.0802 -0.0508
vt 0.375000 0.000000
vt 0.625000 0.000000
vt 0.625000 0.250000
vt 0.375000 0.250000
vt 0.375000 0.500000
vt 0.125000 0.500000
vt 0.625000 0.500000
vt 0.625000 0.750000
vt 0.375000 0.750000
vt 0.875000 0.500000
vt 0.875000 0.750000
vt 0.625000 1.000000
vt 0.375000 1.000000
vt 0.125000 0.750000
vt 0.000000 0.000000
s 0
f 1/1/1 2/2/1 4/3/1 3/4/1
f 28/5/2 25/6/2 30/6/2 29/5/2
f 7/5/3 8/7/3 6/8/3 5/9/3
f 2/2/4 1/1/4 17/1/4 18/2/4
f 7/5/5 5/9/5 34/9/5 33/5/5
f 8/7/6 22/7/6 21/3/6 4/3/6
f 11/7/7 10/10/7 9/11/7 12/8/7
f 6/8/8 8/7/8 11/7/8 12/8/8
f 4/3/9 2/2/9 9/2/9 10/3/9
f 6/8/10 12/8/10 15/8/10 13/8/10
f 14/12/11 13/8/11 15/8/11 16/12/11
f 9/2/12 2/2/12 14/2/12 16/2/12
f 12/8/13 9/11/13 16/11/13 15/8/13
f 2/12/14 6/8/14 13/8/14 14/12/14
f 20/9/15 19/8/15 18/12/15 17/13/15
f 5/9/16 20/9/16 36/9/16 34/9/16
f 6/8/17 2/12/17 18/12/17 19/8/17
f 5/9/18 6/8/18 19/8/18 20/9/18
f 22/7/19 21/3/19 23/3/19 24/7/19
f 4/3/20 10/3/20 23/3/20 21/3/20
f 11/7/21 8/7/21 22/7/21 24/7/21
f 10/10/6 11/7/6 24/7/6 23/10/6
f 26/4/22 21/3/22 22/7/22 27/5/22
f 3/4/23 4/3/23 21/3/23 26/4/23
f 8/7/24 7/5/24 27/5/24 22/7/24
f 27/5/25 7/5/25 28/5/25 29/5/25
f 26/4/26 27/5/26 29/5/26 30/4/26
f 3/4/27 26/4/27 30/4/27 25/4/27
f 7/5/28 3/6/28 25/6/28 28/5/28
f 31/6/2 33/5/2 34/9/2 32/14/2
f 5/9/29 1/14/29 32/14/29 34/9/29
f 3/6/26 7/5/26 33/5/26 31/6/26
f 1/1/30 3/4/30 31/4/30 32/1/30
f 32/14/31 34/9/31 36/9/31 35/14/31
f 17/1/32 1/1/32 32/1/32 35/1/32
f 20/9/33 17/13/33 35/13/33 36/9/33
f 36/15/34 15/15/34 13/15/34 19/15/34 20/15/34
f 29/15/35 27/15/35 22/15/35 24/15/35
f 24/15/36 11/15/36 12/15/36 15/15/36
f 15/15/37 36/15/37 38/15/37 37/15/37
f 24/15/38 39/15/38 40/15/38 29/15/38
