# Blender 4.3.2
# www.blender.org
mtllib Rocket.mtl
o Cylinder
v -0.487238 2.763627 2.370194
v -0.487238 2.763627 1.098991
v -0.368286 2.775343 2.370194
v -0.368286 2.775343 1.098991
v -0.253905 2.810040 2.370194
v -0.253905 2.810040 1.098991
v -0.148492 2.866385 2.370194
v -0.148492 2.866385 1.098991
v -0.056095 2.942213 2.370194
v -0.056095 2.942213 1.098991
v 0.019732 3.034609 2.370194
v 0.019732 3.034609 1.098991
v 0.076077 3.140023 2.370194
v 0.076077 3.140023 1.098991
v 0.110774 3.254404 2.370194
v 0.110774 3.254404 1.098991
v 0.122490 3.373356 2.370194
v 0.122490 3.373356 1.098991
v 0.110774 3.492308 2.370194
v 0.110774 3.492308 1.098991
v 0.076077 3.606688 2.370194
v 0.076077 3.606688 1.098991
v 0.019732 3.712103 2.370194
v 0.019732 3.712102 1.098991
v -0.056095 3.804499 2.370194
v -0.056095 3.804499 1.098991
v -0.148492 3.880326 2.370194
v -0.148492 3.880326 1.098991
v -0.253905 3.936671 2.370194
v -0.253905 3.936671 1.098991
v -0.368286 3.971368 2.370194
v -0.368286 3.971368 1.098991
v -0.487238 3.983084 2.370194
v -0.487238 3.983084 1.098991
v -0.606191 3.971368 2.370194
v -0.606191 3.971368 1.098991
v -0.720571 3.936671 2.370194
v -0.720571 3.936671 1.098991
v -0.825985 3.880326 2.370194
v -0.825985 3.880326 1.098991
v -0.918381 3.804499 2.370194
v -0.918381 3.804499 1.098991
v -0.994209 3.712103 2.370194
v -0.994209 3.712102 1.098991
v -1.050554 3.606688 2.370194
v -1.050554 3.606688 1.098991
v -1.085251 3.492308 2.370194
v -1.085251 3.492308 1.098991
v -1.096967 3.373356 2.370194
v -1.096967 3.373356 1.098991
v -1.085251 3.254404 2.370194
v -1.085251 3.254404 1.098991
v -1.050554 3.140023 2.370194
v -1.050554 3.140023 1.098991
v -0.994209 3.034609 2.370194
v -0.994209 3.034609 1.098991
v -0.918381 2.942213 2.370194
v -0.918381 2.942213 1.098991
v -0.825985 2.866385 2.370194
v -0.825985 2.866385 1.098991
v -0.720571 2.810040 2.370194
v -0.720571 2.810040 1.098991
v -0.606191 2.775343 2.370194
v -0.606191 2.775343 1.098991
v -0.247205 2.166625 -1.161569
v -0.487238 2.142984 -1.161569
v -0.016395 2.236640 -1.161569
v 0.196320 2.350339 -1.161569
v 0.382766 2.503351 -1.161569
v 0.535779 2.689798 -1.161569
v 0.649477 2.902513 -1.161569
v 0.719492 3.133322 -1.161569
v 0.743134 3.373356 -1.161569
v 0.719492 3.613389 -1.161569
v 0.649477 3.844199 -1.161569
v 0.535779 4.056914 -1.161569
v 0.382766 4.243360 -1.161569
v 0.196320 4.396373 -1.161569
v -0.016395 4.510071 -1.161569
v -0.247205 4.580087 -1.161569
v -0.487238 4.603727 -1.161569
v -0.727272 4.580087 -1.161569
v -0.958081 4.510071 -1.161569
v -1.170796 4.396373 -1.161569
v -1.357243 4.243360 -1.161569
v -1.510255 4.056914 -1.161569
v -1.623954 3.844199 -1.161569
v -1.693969 3.613389 -1.161569
v -1.717610 3.373356 -1.161569
v -1.693969 3.133322 -1.161569
v -1.623954 2.902513 -1.161569
v -1.510255 2.689798 -1.161569
v -1.357243 2.503351 -1.161569
v -1.170796 2.350339 -1.161569
v -0.958081 2.236640 -1.161569
v -0.727272 2.166625 -1.161569
v -0.239784 2.129320 -1.871368
v -0.487238 2.104948 -1.871368
v -0.001840 2.201499 -1.871368
v 0.217451 2.318713 -1.871368
v 0.409661 2.476456 -1.871368
v 0.567404 2.668666 -1.871368
v 0.684618 2.887957 -1.871368
v 0.756797 3.125902 -1.871368
v 0.781170 3.373356 -1.871368
v 0.756797 3.620810 -1.871368
v 0.684618 3.858754 -1.871368
v 0.567404 4.078045 -1.871368
v 0.409661 4.270256 -1.871368
v 0.217451 4.427998 -1.871368
v -0.001840 4.545212 -1.871368
v -0.239784 4.617392 -1.871368
v -0.487238 4.641764 -1.871368
v -0.734693 4.617392 -1.871368
v -0.972637 4.545212 -1.871368
v -1.191928 4.427998 -1.871368
v -1.384138 4.270256 -1.871368
v -1.541881 4.078045 -1.871368
v -1.659094 3.858754 -1.871368
v -1.731274 3.620810 -1.871368
v -1.755646 3.373356 -1.871368
v -1.731274 3.125902 -1.871368
v -1.659094 2.887957 -1.871368
v -1.541881 2.668666 -1.871368
v -1.384138 2.476456 -1.871368
v -1.191928 2.318713 -1.871368
v -0.972637 2.201499 -1.871368
v -0.734693 2.129320 -1.871368
v -0.447362 3.172884 -4.337813
v -0.487239 3.168956 -4.337813
v -0.409018 3.184515 -4.337813
v -0.373680 3.203404 -4.337813
v -0.342706 3.228823 -4.337813
v -0.317287 3.259797 -4.337813
v -0.298398 3.295135 -4.337813
v -0.286767 3.333479 -4.337813
v -0.282839 3.373356 -4.337813
v -0.286767 3.413232 -4.337813
v -0.298398 3.451576 -4.337813
v -0.317287 3.486914 -4.337813
v -0.342706 3.517888 -4.337813
v -0.373680 3.543307 -4.337813
v -0.409018 3.562196 -4.337813
v -0.447362 3.573828 -4.337813
v -0.487239 3.577755 -4.337813
v -0.527115 3.573828 -4.337813
v -0.565459 3.562196 -4.337813
v -0.600797 3.543307 -4.337813
v -0.631771 3.517888 -4.337813
v -0.657190 3.486914 -4.337813
v -0.676079 3.451576 -4.337813
v -0.687710 3.413232 -4.337813
v -0.691638 3.373356 -4.337813
v -0.687710 3.333479 -4.337813
v -0.676079 3.295135 -4.337813
v -0.657190 3.259797 -4.337813
v -0.631771 3.228823 -4.337813
v -0.600797 3.203404 -4.337813
v -0.565459 3.184515 -4.337813
v -0.527115 3.172884 -4.337813
v -0.368286 4.308283 2.370194
v -0.487238 4.319999 2.370194
v -0.606191 4.308283 2.370194
v 0.282322 3.966329 2.370194
v 0.206494 4.058725 2.370194
v 0.114098 4.134553 2.370194
v 0.450505 3.254404 2.370194
v 0.462221 3.373356 2.370194
v 0.450505 3.492308 2.370194
v 0.089651 2.628243 2.370194
v 0.182047 2.704071 2.370194
v 0.257874 2.796467 2.370194
v -0.487238 2.481329 2.370194
v -0.368286 2.493045 2.370194
v -0.606191 2.493045 2.370194
v -1.173520 2.855298 2.370194
v -1.097693 2.762901 2.370194
v -1.005296 2.687074 2.370194
v -1.388129 3.492308 2.370194
v -1.399844 3.373356 2.370194
v -1.388129 3.254404 2.370194
v -1.095540 4.149881 2.370194
v -1.187936 4.074053 2.370194
v -1.263763 3.981657 2.370194
v -0.487239 2.763628 4.180405
v -0.368286 2.775343 4.180405
v -0.253906 2.810040 4.180405
v -0.148492 2.866385 4.180405
v -0.056096 2.942213 4.180405
v 0.019732 3.034609 4.180405
v 0.076077 3.140023 4.180405
v 0.110774 3.254404 4.180405
v 0.122490 3.373356 4.180405
v 0.110774 3.492308 4.180405
v 0.076077 3.606689 4.180405
v 0.019732 3.712103 4.180405
v -0.056096 3.804499 4.180405
v -0.148492 3.880326 4.180405
v -0.253906 3.936671 4.180405
v -0.368286 3.971368 4.180405
v -0.487239 3.983084 4.180405
v -0.606191 3.971368 4.180405
v -0.720571 3.936671 4.180405
v -0.825985 3.880326 4.180405
v -0.918382 3.804499 4.180405
v -0.994209 3.712103 4.180405
v -1.050554 3.606689 4.180405
v -1.085251 3.492308 4.180405
v -1.096967 3.373356 4.180405
v -1.085251 3.254404 4.180405
v -1.050554 3.140023 4.180405
v -0.994209 3.034609 4.180405
v -0.918382 2.942213 4.180405
v -0.825985 2.866385 4.180405
v -0.720571 2.810040 4.180405
v -0.606191 2.775343 4.180405
vn -0.0000 -0.0000 1.0000
vn 0.2903 -0.9569 -0.0000
vn 0.4714 -0.8819 -0.0000
vn 0.7071 0.7071 -0.0000
vn 0.8819 -0.4714 -0.0000
vn 0.9569 -0.2903 -0.0000
vn 0.9618 0.0947 -0.2570
vn 0.9569 0.2903 -0.0000
vn 0.8819 0.4714 -0.0000
vn -0.6956 0.7185 -0.0000
vn 0.4714 0.8819 -0.0000
vn 0.2903 0.9569 -0.0000
vn 1.0000 -0.0000 -0.0000
vn -0.0948 0.9623 -0.2550
vn -0.2903 0.9569 -0.0000
vn -0.4714 0.8819 -0.0000
vn -0.8819 0.4714 -0.0000
vn -0.9569 0.2903 -0.0000
vn -0.0000 -1.0000 -0.0000
vn -0.9569 -0.2903 -0.0000
vn -0.8819 -0.4714 -0.0000
vn 0.7071 -0.7071 -0.0000
vn -0.4714 -0.8819 -0.0000
vn 0.9600 0.0946 0.2636
vn -0.2903 -0.9569 -0.0000
vn -0.0957 -0.9717 -0.2158
vn 0.9952 -0.0980 -0.0000
vn 0.4707 -0.8807 0.0533
vn -0.2800 0.9231 0.2636
vn -0.8507 -0.4547 0.2636
vn 0.7457 -0.6120 0.2636
vn 0.4547 0.8507 0.2636
vn -0.9231 0.2800 0.2636
vn 0.0946 -0.9600 0.2636
vn -0.0946 -0.9600 0.2636
vn 0.9231 0.2800 0.2636
vn -0.4547 0.8507 0.2636
vn -0.7457 -0.6120 0.2636
vn 0.8507 -0.4547 0.2636
vn 0.2800 0.9231 0.2636
vn -0.9600 0.0946 0.2636
vn 0.2800 -0.9231 0.2636
vn 0.8507 0.4547 0.2636
vn -0.6120 0.7457 0.2636
vn -0.6120 -0.7457 0.2636
vn 0.9231 -0.2800 0.2636
vn 0.0946 0.9600 0.2636
vn -0.9600 -0.0946 0.2636
vn 0.4547 -0.8507 0.2636
vn 0.7457 0.6120 0.2636
vn -0.7457 0.6120 0.2636
vn -0.4547 -0.8507 0.2636
vn 0.9600 -0.0946 0.2636
vn -0.0946 0.9600 0.2636
vn -0.9231 -0.2800 0.2636
vn 0.6120 -0.7457 0.2636
vn 0.6120 0.7457 0.2636
vn -0.8507 0.4547 0.2636
vn -0.2800 -0.9231 0.2636
vn 0.8104 -0.4332 -0.3945
vn -0.4707 -0.8807 0.0533
vn -0.0979 0.9938 0.0533
vn 0.6335 -0.7719 0.0533
vn -0.2899 -0.9556 0.0533
vn -0.2899 0.9556 0.0533
vn 0.7719 -0.6335 0.0533
vn -0.0979 -0.9938 0.0533
vn -0.4707 0.8807 0.0533
vn 0.8807 -0.4707 0.0533
vn -0.6335 0.7719 0.0533
vn 0.9556 -0.2899 0.0533
vn -0.7719 0.6335 0.0533
vn 0.9938 -0.0979 0.0533
vn -0.8807 0.4707 0.0533
vn 0.9938 0.0979 0.0533
vn -0.9556 0.2899 0.0533
vn 0.9556 0.2899 0.0533
vn -0.9938 0.0979 0.0533
vn 0.8807 0.4707 0.0533
vn -0.9938 -0.0979 0.0533
vn 0.7719 0.6335 0.0533
vn -0.9556 -0.2899 0.0533
vn 0.6335 0.7719 0.0533
vn -0.8807 -0.4707 0.0533
vn 0.4707 0.8807 0.0533
vn 0.0979 -0.9938 0.0533
vn -0.7719 -0.6335 0.0533
vn 0.2899 0.9556 0.0533
vn 0.2899 -0.9556 0.0533
vn -0.6335 -0.7719 0.0533
vn 0.0979 0.9938 0.0533
vn -0.0000 -0.0000 -1.0000
vn -0.5829 0.7103 -0.3945
vn 0.8793 -0.2667 -0.3945
vn -0.7103 0.5829 -0.3945
vn 0.9145 -0.0901 -0.3945
vn -0.8104 0.4332 -0.3945
vn 0.9145 0.0901 -0.3945
vn -0.8793 0.2667 -0.3945
vn 0.8793 0.2667 -0.3945
vn -0.9145 0.0901 -0.3945
vn 0.8104 0.4332 -0.3945
vn -0.9145 -0.0901 -0.3945
vn 0.7103 0.5829 -0.3945
vn -0.8793 -0.2667 -0.3945
vn 0.5829 0.7103 -0.3945
vn -0.8104 -0.4332 -0.3945
vn 0.4332 0.8104 -0.3945
vn 0.0901 -0.9145 -0.3945
vn -0.7103 -0.5829 -0.3945
vn 0.2667 0.8793 -0.3945
vn 0.2667 -0.8793 -0.3945
vn -0.5829 -0.7103 -0.3945
vn 0.0901 0.9145 -0.3945
vn 0.4332 -0.8104 -0.3945
vn -0.4332 -0.8104 -0.3945
vn -0.0901 0.9145 -0.3945
vn 0.5829 -0.7103 -0.3945
vn -0.2667 -0.8793 -0.3945
vn -0.2667 0.8793 -0.3945
vn 0.7103 -0.5829 -0.3945
vn -0.0901 -0.9145 -0.3945
vn -0.4332 0.8104 -0.3945
vn 0.7431 0.6098 -0.2755
vn -1.0000 -0.0000 -0.0000
vn 0.6100 0.7433 -0.2747
vn 0.9618 -0.0947 -0.2570
vn 0.6956 -0.7185 -0.0000
vn 0.6134 -0.7475 -0.2549
vn -0.0000 1.0000 -0.0000
vn 0.7475 -0.6134 -0.2549
vn 0.0957 -0.9717 -0.2158
vn -0.7071 -0.7071 -0.0000
vn -0.7582 -0.6222 -0.1947
vn -0.6222 -0.7582 -0.1947
vn -0.9683 0.0954 -0.2307
vn -0.7071 0.7071 -0.0000
vn -0.9683 -0.0954 -0.2307
vn -0.6079 0.7407 -0.2860
vn -0.7407 0.6079 -0.2860
vn -0.0980 0.9952 -0.0000
vn 0.6344 -0.7730 -0.0000
vn 0.6344 0.7730 -0.0000
vn 0.9952 0.0980 -0.0000
vn 0.7730 -0.6344 -0.0000
vn 0.0980 -0.9952 -0.0000
vn -0.0980 -0.9952 -0.0000
vn -0.7730 -0.6344 -0.0000
vn -0.9952 0.0980 -0.0000
vn -0.6344 0.7730 -0.0000
vn -0.6344 -0.7730 -0.0000
vn 0.0980 0.9952 -0.0000
vn -0.9952 -0.0980 -0.0000
vn 0.7730 0.6344 -0.0000
vn -0.7730 0.6344 -0.0000
vn 0.0948 0.9623 -0.2550
vt 0.750000 0.490000
vt 0.703178 0.485388
vt 0.968750 0.500000
vt 0.968750 1.000000
vt 0.937500 1.000000
vt 0.937500 0.500000
vt 0.906250 1.000000
vt 0.906250 0.500000
vt 0.843750 1.000000
vt 0.843750 0.500000
vt 0.919706 0.419706
vt 0.883337 0.449553
vt 0.812500 1.000000
vt 0.812500 0.500000
vt 0.781250 1.000000
vt 0.781250 0.500000
vt 0.750000 1.000000
vt 0.718750 1.000000
vt 0.718750 0.500000
vt 0.750000 0.500000
vt 0.985388 0.203178
vt 0.990000 0.250000
vt 0.687500 1.000000
vt 0.687500 0.500000
vt 0.656250 1.000000
vt 0.656250 0.500000
vt 0.593750 1.000000
vt 0.593750 0.500000
vt 0.919706 0.080294
vt 0.949553 0.116663
vt 0.562500 1.000000
vt 0.562500 0.500000
vt 0.531250 1.000000
vt 0.531250 0.500000
vt 0.500000 1.000000
vt 0.468750 1.000000
vt 0.468750 0.500000
vt 0.500000 0.500000
vt 0.437500 1.000000
vt 0.437500 0.500000
vt 0.406250 1.000000
vt 0.406250 0.500000
vt 0.580294 0.080294
vt 0.616663 0.050447
vt 0.343750 0.500000
vt 0.343750 1.000000
vt 0.312500 1.000000
vt 0.312500 0.500000
vt 0.281250 1.000000
vt 0.281250 0.500000
vt 0.514612 0.296822
vt 0.510000 0.250000
vt 0.218750 1.000000
vt 0.218750 0.500000
vt 0.187500 1.000000
vt 0.187500 0.500000
vt 0.156250 1.000000
vt 0.156250 0.500000
vt 0.616663 0.449553
vt 0.580294 0.419706
vt 0.093750 1.000000
vt 0.093750 0.500000
vt 0.062500 1.000000
vt 0.062500 0.500000
vt 0.031250 1.000000
vt 0.031250 0.500000
vt 0.000000 1.000000
vt 0.000000 0.500000
vt 0.985388 0.296822
vt 0.875000 1.000000
vt 1.000000 1.000000
vt 0.125000 1.000000
vt 0.250000 1.000000
vt 0.375000 1.000000
vt 0.625000 1.000000
vt 0.296822 0.485388
vt 0.250000 0.490000
vt 0.203178 0.485388
vt 0.158156 0.471731
vt 0.116663 0.449553
vt 0.080294 0.419706
vt 0.050447 0.383337
vt 0.028269 0.341844
vt 0.014612 0.296822
vt 0.010000 0.250000
vt 0.014612 0.203178
vt 0.028269 0.158156
vt 0.050447 0.116663
vt 0.080294 0.080294
vt 0.116663 0.050447
vt 0.158156 0.028269
vt 0.203178 0.014612
vt 0.250000 0.010000
vt 0.296822 0.014612
vt 0.341844 0.028269
vt 0.383337 0.050447
vt 0.419706 0.080294
vt 0.449553 0.116663
vt 0.471731 0.158156
vt 0.485388 0.203178
vt 0.490000 0.250000
vt 0.485388 0.296822
vt 0.471731 0.341844
vt 0.449553 0.383337
vt 0.419706 0.419706
vt 0.383337 0.449553
vt 0.341844 0.471731
vt 0.625000 0.500000
vt 0.750000 0.010000
vt 0.796822 0.014612
vt 0.703178 0.014612
vt 0.883337 0.050447
vt 0.875000 0.500000
vt 1.000000 0.500000
vt 0.949553 0.383337
vt 0.125000 0.500000
vt 0.796822 0.485388
vt 0.250000 0.500000
vt 0.550447 0.383337
vt 0.375000 0.500000
vt 0.514612 0.203178
vt 0.550447 0.116663
vt 0.841844 0.471731
vt 0.971731 0.341844
vt 0.971731 0.158156
vt 0.841844 0.028269
vt 0.658156 0.028269
vt 0.528269 0.158156
vt 0.528269 0.341844
vt 0.658156 0.471731
s 0
f 1/1/1 63/2/1 175/2/1 173/1/1
f 3/3/2 4/4/2 6/5/2 5/6/2
f 5/6/3 6/5/3 8/7/3 7/8/3
f 12/9/4 11/10/4 172/10/4
f 9/11/1 7/12/1 170/12/1 171/11/1
f 11/10/5 12/9/5 14/13/5 13/14/5
f 13/14/6 14/13/6 16/15/6 15/16/6
f 18/17/7 20/18/7 169/19/7 168/20/7
f 19/21/1 17/22/1 168/22/1 169/21/1
f 19/19/8 20/18/8 22/23/8 21/24/8
f 21/24/9 22/23/9 24/25/9 23/26/9
f 28/27/10 27/28/10 166/28/10
f 25/29/1 23/30/1 164/30/1 165/29/1
f 27/28/11 28/27/11 30/31/11 29/32/11
f 29/32/12 30/31/12 32/33/12 31/34/12
f 31/34/13 32/33/13 161/34/13
f 34/35/14 36/36/14 163/37/14 162/38/14
f 35/37/15 36/36/15 38/39/15 37/40/15
f 37/40/16 38/39/16 40/41/16 39/42/16
f 41/43/1 39/44/1 182/44/1 183/43/1
f 43/45/17 44/46/17 46/47/17 45/48/17
f 45/48/18 46/47/18 48/49/18 47/50/18
f 51/51/1 49/52/1 180/52/1 181/51/1
f 52/53/19 51/54/19 181/54/19
f 51/54/20 52/53/20 54/55/20 53/56/20
f 53/56/21 54/55/21 56/57/21 55/58/21
f 59/59/1 57/60/1 177/60/1 178/59/1
f 60/61/22 59/62/22 178/62/22
f 59/62/23 60/61/23 62/63/23 61/64/23
f 20/18/24 18/17/24 73/17/24 74/18/24
f 61/64/25 62/63/25 64/65/25 63/66/25
f 64/65/26 2/67/26 173/68/26 175/66/26
f 15/69/27 17/22/27 193/22/27 192/69/27
f 68/7/28 67/5/28 99/5/28 100/7/28
f 38/39/29 36/36/29 82/36/29 83/39/29
f 56/57/30 54/55/30 91/55/30 92/57/30
f 12/9/31 10/70/31 69/70/31 70/9/31
f 30/31/32 28/27/32 78/27/32 79/31/32
f 48/49/33 46/47/33 87/47/33 88/49/33
f 4/4/34 2/71/34 66/71/34 65/4/34
f 2/67/35 64/65/35 96/65/35 66/67/35
f 22/23/36 20/18/36 74/18/36 75/23/36
f 40/41/37 38/39/37 83/39/37 84/41/37
f 58/72/38 56/57/38 92/57/38 93/72/38
f 14/13/39 12/9/39 70/9/39 71/13/39
f 32/33/40 30/31/40 79/31/40 80/33/40
f 50/73/41 48/49/41 88/49/41 89/73/41
f 6/5/42 4/4/42 65/4/42 67/5/42
f 24/25/43 22/23/43 75/23/43 76/25/43
f 42/74/44 40/41/44 84/41/44 85/74/44
f 60/61/45 58/72/45 93/72/45 94/61/45
f 16/15/46 14/13/46 71/13/46 72/15/46
f 34/35/47 32/33/47 80/33/47 81/35/47
f 52/53/48 50/73/48 89/73/48 90/53/48
f 8/7/49 6/5/49 67/5/49 68/7/49
f 26/75/50 24/25/50 76/25/50 77/75/50
f 44/46/51 42/74/51 85/74/51 86/46/51
f 62/63/52 60/61/52 94/61/52 95/63/52
f 18/17/53 16/15/53 72/15/53 73/17/53
f 36/36/54 34/35/54 81/35/54 82/36/54
f 54/55/55 52/53/55 90/53/55 91/55/55
f 10/70/56 8/7/56 68/7/56 69/70/56
f 28/27/57 26/75/57 77/75/57 78/27/57
f 46/47/58 44/46/58 86/46/58 87/47/58
f 64/65/59 62/63/59 95/63/59 96/65/59
f 103/13/60 102/9/60 134/9/60 135/13/60
f 95/63/61 94/61/61 126/61/61 127/63/61
f 82/36/62 81/35/62 113/35/62 114/36/62
f 69/70/63 68/7/63 100/7/63 101/70/63
f 96/65/64 95/63/64 127/63/64 128/65/64
f 83/39/65 82/36/65 114/36/65 115/39/65
f 70/9/66 69/70/66 101/70/66 102/9/66
f 66/67/67 96/65/67 128/65/67 98/67/67
f 84/41/68 83/39/68 115/39/68 116/41/68
f 71/13/69 70/9/69 102/9/69 103/13/69
f 85/74/70 84/41/70 116/41/70 117/74/70
f 72/15/71 71/13/71 103/13/71 104/15/71
f 86/46/72 85/74/72 117/74/72 118/46/72
f 73/17/73 72/15/73 104/15/73 105/17/73
f 87/47/74 86/46/74 118/46/74 119/47/74
f 74/18/75 73/17/75 105/17/75 106/18/75
f 88/49/76 87/47/76 119/47/76 120/49/76
f 75/23/77 74/18/77 106/18/77 107/23/77
f 89/73/78 88/49/78 120/49/78 121/73/78
f 76/25/79 75/23/79 107/23/79 108/25/79
f 90/53/80 89/73/80 121/73/80 122/53/80
f 77/75/81 76/25/81 108/25/81 109/75/81
f 91/55/82 90/53/82 122/53/82 123/55/82
f 78/27/83 77/75/83 109/75/83 110/27/83
f 92/57/84 91/55/84 123/55/84 124/57/84
f 79/31/85 78/27/85 110/27/85 111/31/85
f 65/4/86 66/71/86 98/71/86 97/4/86
f 93/72/87 92/57/87 124/57/87 125/72/87
f 80/33/88 79/31/88 111/31/88 112/33/88
f 67/5/89 65/4/89 97/4/89 99/5/89
f 94/61/90 93/72/90 125/72/90 126/61/90
f 81/35/91 80/33/91 112/33/91 113/35/91
f 129/76/92 130/77/92 160/78/92 159/79/92 158/80/92 157/81/92 156/82/92 155/83/92 154/84/92 153/85/92 152/86/92 151/87/92 150/88/92 149/89/92 148/90/92 147/91/92 146/92/92 145/93/92 144/94/92 143/95/92 142/96/92 141/97/92 140/98/92 139/99/92 138/100/92 137/101/92 136/102/92 135/103/92 134/104/92 133/105/92 132/106/92 131/107/92
f 117/74/93 116/41/93 148/41/93 149/74/93
f 104/15/94 103/13/94 135/13/94 136/15/94
f 118/46/95 117/74/95 149/74/95 150/46/95
f 105/17/96 104/15/96 136/15/96 137/17/96
f 119/47/97 118/46/97 150/46/97 151/47/97
f 106/18/98 105/17/98 137/17/98 138/18/98
f 120/49/99 119/47/99 151/47/99 152/49/99
f 107/23/100 106/18/100 138/18/100 139/23/100
f 121/73/101 120/49/101 152/49/101 153/73/101
f 108/25/102 107/23/102 139/23/102 140/25/102
f 122/53/103 121/73/103 153/73/103 154/53/103
f 109/75/104 108/25/104 140/25/104 141/75/104
f 123/55/105 122/53/105 154/53/105 155/55/105
f 110/27/106 109/75/106 141/75/106 142/27/106
f 124/57/107 123/55/107 155/55/107 156/57/107
f 111/31/108 110/27/108 142/27/108 143/31/108
f 97/4/109 98/71/109 130/71/109 129/4/109
f 125/72/110 124/57/110 156/57/110 157/72/110
f 112/33/111 111/31/111 143/31/111 144/33/111
f 99/5/112 97/4/112 129/4/112 131/5/112
f 126/61/113 125/72/113 157/72/113 158/61/113
f 113/35/114 112/33/114 144/33/114 145/35/114
f 100/7/115 99/5/115 131/5/115 132/7/115
f 127/63/116 126/61/116 158/61/116 159/63/116
f 114/36/117 113/35/117 145/35/117 146/36/117
f 101/70/118 100/7/118 132/7/118 133/70/118
f 128/65/119 127/63/119 159/63/119 160/65/119
f 115/39/120 114/36/120 146/36/120 147/39/120
f 102/9/121 101/70/121 133/70/121 134/9/121
f 98/67/122 128/65/122 160/65/122 130/67/122
f 116/41/123 115/39/123 147/39/123 148/41/123
f 24/25/124 26/75/124 165/108/124 164/26/124
f 33/109/1 31/110/1 161/110/1 162/109/1
f 36/36/125 35/37/125 163/37/125
f 35/111/1 33/109/1 162/109/1 163/111/1
f 26/75/126 28/27/126 166/28/126 165/108/126
f 167/16/127 16/15/127 18/17/127 168/20/127
f 27/112/1 25/29/1 165/29/1 166/112/1
f 23/26/128 24/25/128 164/26/128
f 8/7/129 10/70/129 171/113/129 170/8/129
f 15/16/19 16/15/19 167/16/19
f 17/22/1 15/69/1 167/69/1 168/22/1
f 20/18/130 19/19/130 169/19/130
f 10/70/131 12/9/131 172/10/131 171/113/131
f 173/114/132 2/71/132 4/4/132 174/3/132
f 11/115/1 9/11/1 171/11/1 172/115/1
f 7/8/133 8/7/133 170/8/133
f 56/57/134 58/72/134 177/116/134 176/58/134
f 3/117/1 1/1/1 173/1/1 174/117/1
f 63/66/125 64/65/125 175/66/125
f 4/4/13 3/3/13 174/3/13
f 58/72/135 60/61/135 178/62/135 177/116/135
f 48/49/136 50/73/136 180/118/136 179/50/136
f 55/58/137 56/57/137 176/58/137
f 57/60/1 55/119/1 176/119/1 177/60/1
f 50/73/138 52/53/138 181/54/138 180/118/138
f 40/41/139 42/74/139 183/120/139 182/42/139
f 47/50/130 48/49/130 179/50/130
f 49/52/1 47/121/1 179/121/1 180/52/1
f 183/120/140 42/74/140 44/46/140 184/45/140
f 44/46/133 43/45/133 184/45/133
f 43/122/1 41/43/1 183/43/1 184/122/1
f 39/42/4 40/41/4 182/42/4
f 185/1/1 186/117/1 187/123/1 188/12/1 189/11/1 190/115/1 191/124/1 192/69/1 193/22/1 194/21/1 195/125/1 196/30/1 197/29/1 198/112/1 199/126/1 200/110/1 201/109/1 202/111/1 203/127/1 204/44/1 205/43/1 206/122/1 207/128/1 208/121/1 209/52/1 210/51/1 211/129/1 212/119/1 213/60/1 214/59/1 215/130/1 216/2/1
f 33/109/141 35/111/141 202/111/141 201/109/141
f 51/54/20 53/56/20 211/56/20 210/54/20
f 7/12/142 9/11/142 189/11/142 188/12/142
f 25/29/143 27/112/143 198/112/143 197/29/143
f 43/45/17 45/48/17 207/48/17 206/45/17
f 61/64/25 63/66/25 216/66/25 215/64/25
f 17/22/144 19/21/144 194/21/144 193/22/144
f 35/37/15 37/40/15 203/40/15 202/37/15
f 53/56/21 55/58/21 212/58/21 211/56/21
f 9/11/145 11/115/145 190/115/145 189/11/145
f 27/28/11 29/32/11 199/32/11 198/28/11
f 45/48/18 47/50/18 208/50/18 207/48/18
f 1/1/146 3/117/146 186/117/146 185/1/146
f 63/2/147 1/1/147 185/1/147 216/2/147
f 19/19/8 21/24/8 195/24/8 194/19/8
f 37/40/16 39/42/16 204/42/16 203/40/16
f 55/119/148 57/60/148 213/60/148 212/119/148
f 11/10/5 13/14/5 191/14/5 190/10/5
f 29/32/12 31/34/12 200/34/12 199/32/12
f 47/121/149 49/52/149 209/52/149 208/121/149
f 3/3/2 5/6/2 187/6/2 186/3/2
f 21/24/9 23/26/9 196/26/9 195/24/9
f 39/44/150 41/43/150 205/43/150 204/44/150
f 57/60/151 59/59/151 214/59/151 213/60/151
f 13/14/6 15/16/6 192/16/6 191/14/6
f 31/110/152 33/109/152 201/109/152 200/110/152
f 49/52/153 51/51/153 210/51/153 209/52/153
f 5/6/3 7/8/3 188/8/3 187/6/3
f 23/30/154 25/29/154 197/29/154 196/30/154
f 41/43/155 43/122/155 206/122/155 205/43/155
f 59/62/23 61/64/23 215/64/23 214/62/23
f 161/34/156 32/33/156 34/35/156 162/38/156
