# Blender 4.3.2
# www.blender.org
mtllib sword.blade.mtl
o Cube
v 1.023305 4.183360 -0.411759
v 1.023305 4.099209 -0.411759
v 1.023305 4.183360 0.277517
v 1.023305 4.099209 0.277517
v -0.990468 4.183360 -0.411759
v -0.990468 4.099209 -0.411759
v -0.990468 4.183360 0.277517
v -0.990468 4.099209 0.277517
v 1.023305 4.183360 -0.067121
v 1.023305 4.099209 -0.067121
v -0.990468 4.183360 -0.067121
v -0.990468 4.099209 -0.067121
v 0.451267 4.183360 0.277517
v 0.451267 4.099209 0.277517
v 0.451267 4.183360 -0.411759
v 0.451267 4.099209 -0.411759
v 0.451267 4.099209 -0.067121
v -0.436106 4.183360 0.277517
v -0.436106 4.099209 -0.411759
v -0.436106 4.099209 -0.067121
v -0.436106 4.099209 0.277517
v -0.436106 4.183360 -0.411759
v -0.436106 11.646796 0.277517
v -0.990468 11.646796 -0.067121
v 1.023305 11.646796 -0.067121
v -0.436106 13.757761 -0.067121
v 0.451267 11.646796 -0.411759
v 0.451267 13.757761 -0.067121
v 0.451267 11.646796 0.277517
v -0.436106 11.646796 -0.411759
vn 1.0000 -0.0000 -0.0000
vn -0.0000 -1.0000 -0.0000
vn -0.0000 -0.0000 1.0000
vn -0.0000 -0.0000 -1.0000
vn -1.0000 -0.0000 -0.0000
vn 0.2884 0.0221 -0.9573
vn -0.5230 0.1373 0.8412
vn -0.5230 0.1373 -0.8412
vn -0.0000 0.1611 -0.9869
vn 0.5111 0.1385 0.8483
vn -0.0000 0.1611 0.9869
vn 0.5111 0.1385 -0.8483
vn -0.2968 0.0220 -0.9547
vn -0.2968 0.0220 0.9547
vn 0.2884 0.0221 0.9573
vt 0.625000 0.875000
vt 0.625000 0.750000
vt 0.553984 0.375000
vt 0.625000 0.375000
vt 0.625000 0.500000
vt 0.553984 0.500000
vt 0.375000 0.681179
vt 0.625000 0.681179
vt 0.375000 0.750000
vt 0.375000 0.875000
vt 0.625000 1.000000
vt 0.375000 1.000000
vt 0.125000 0.678984
vt 0.375000 0.678984
vt 0.125000 0.750000
vt 0.625000 0.625000
vt 0.875000 0.625000
vt 0.875000 0.750000
vt 0.875000 0.500000
vt 0.553984 0.250000
vt 0.625000 0.250000
vt 0.375000 0.568821
vt 0.625000 0.571016
vt 0.443821 0.250000
vt 0.443821 0.375000
vt 0.125000 0.568821
vt 0.375000 0.500000
vt 0.375000 0.571016
vt 0.443821 0.500000
vt 0.375000 0.375000
vt 0.125000 0.500000
vt 0.375000 0.250000
s 0
usemtl blade.skin
f 9/1/1 1/2/1 25/1/1
f 17/3/2 10/4/2 4/5/2 14/6/2
f 21/7/3 18/8/3 7/2/3 8/9/3
f 10/10/1 9/1/1 3/11/1 4/12/1
f 16/13/4 15/14/4 1/9/4 2/15/4
f 12/16/5 11/17/5 5/18/5 6/2/5
f 8/5/5 7/19/5 11/17/5 12/16/5
f 2/9/1 1/2/1 9/1/1 10/10/1
f 16/20/2 2/21/2 10/4/2 17/3/2
f 15/14/4 22/22/4 30/22/4 27/14/4
f 18/8/3 13/23/3 29/23/3 23/8/3
f 19/24/2 16/20/2 17/3/2 20/25/2
f 19/26/4 22/22/4 15/14/4 16/13/4
f 4/27/3 3/5/3 13/23/3 14/28/3
f 20/25/2 17/3/2 14/6/2 21/29/2
f 1/9/6 15/14/6 27/14/6 25/9/6
f 12/30/2 20/25/2 21/29/2 8/27/2
f 6/31/4 5/27/4 22/22/4 19/26/4
f 6/32/2 19/24/2 20/25/2 12/30/2
f 5/18/5 11/17/5 24/18/5
f 14/28/3 13/23/3 18/8/3 21/7/3
f 11/17/5 7/19/5 24/17/5
f 24/2/7 23/8/7 26/2/7
f 30/22/8 24/27/8 26/22/8
f 27/14/9 30/22/9 26/22/9 28/14/9
f 29/23/10 25/5/10 28/23/10
f 23/8/11 29/23/11 28/23/11 26/8/11
f 25/9/12 27/14/12 28/9/12
f 3/11/1 9/1/1 25/11/1
f 22/22/13 5/27/13 24/27/13 30/22/13
f 7/2/14 18/8/14 23/8/14 24/2/14
f 13/23/15 3/5/15 25/5/15 29/23/15
